<svg width="32" height="32" viewBox="0 0 32 32" xmlns="http://www.w3.org/2000/svg">
  <!-- Explosion effect in pixel art style -->
  <defs>
    <style>
      .pixel { shape-rendering: crispEdges; }
    </style>
  </defs>
  
  <!-- Center blast -->
  <rect x="12" y="12" width="8" height="8" fill="#ffffff" class="pixel"/>
  <rect x="10" y="14" width="12" height="4" fill="#ffff00" class="pixel"/>
  <rect x="14" y="10" width="4" height="12" fill="#ffff00" class="pixel"/>
  
  <!-- Inner ring -->
  <rect x="8" y="13" width="16" height="6" fill="#ff8800" class="pixel"/>
  <rect x="13" y="8" width="6" height="16" fill="#ff8800" class="pixel"/>
  <rect x="10" y="10" width="12" height="12" fill="#ff8800" class="pixel"/>
  
  <!-- Outer blast rays -->
  <rect x="4" y="15" width="24" height="2" fill="#ff4400" class="pixel"/>
  <rect x="15" y="4" width="2" height="24" fill="#ff4400" class="pixel"/>
  
  <!-- Diagonal rays -->
  <rect x="6" y="6" width="4" height="4" fill="#ff4400" class="pixel"/>
  <rect x="22" y="6" width="4" height="4" fill="#ff4400" class="pixel"/>
  <rect x="6" y="22" width="4" height="4" fill="#ff4400" class="pixel"/>
  <rect x="22" y="22" width="4" height="4" fill="#ff4400" class="pixel"/>
  
  <!-- Scattered particles -->
  <rect x="2" y="14" width="2" height="2" fill="#ffff00" class="pixel"/>
  <rect x="28" y="16" width="2" height="2" fill="#ffff00" class="pixel"/>
  <rect x="14" y="2" width="2" height="2" fill="#ffff00" class="pixel"/>
  <rect x="16" y="28" width="2" height="2" fill="#ffff00" class="pixel"/>
  
  <rect x="1" y="8" width="1" height="1" fill="#ffffff" class="pixel"/>
  <rect x="30" y="12" width="1" height="1" fill="#ffffff" class="pixel"/>
  <rect x="24" y="1" width="1" height="1" fill="#ffffff" class="pixel"/>
  <rect x="8" y="30" width="1" height="1" fill="#ffffff" class="pixel"/>
</svg>
