<svg width="32" height="32" viewBox="0 0 32 32" xmlns="http://www.w3.org/2000/svg">
  <!-- Goku punching sprite in pixel art style -->
  <defs>
    <style>
      .pixel { shape-rendering: crispEdges; }
    </style>
  </defs>
  
  <!-- Hair (black spiky) -->
  <rect x="10" y="4" width="12" height="8" fill="#1a1a1a" class="pixel"/>
  <rect x="8" y="6" width="2" height="4" fill="#1a1a1a" class="pixel"/>
  <rect x="22" y="6" width="2" height="4" fill="#1a1a1a" class="pixel"/>
  <rect x="12" y="2" width="8" height="2" fill="#1a1a1a" class="pixel"/>
  
  <!-- Face (peach, determined expression) -->
  <rect x="12" y="8" width="8" height="6" fill="#ffdbac" class="pixel"/>
  
  <!-- Eyes (focused) -->
  <rect x="13" y="9" width="2" height="1" fill="#000000" class="pixel"/>
  <rect x="17" y="9" width="2" height="1" fill="#000000" class="pixel"/>
  
  <!-- Nose -->
  <rect x="15" y="11" width="2" height="1" fill="#ffb366" class="pixel"/>
  
  <!-- Mouth (shouting) -->
  <rect x="14" y="12" width="4" height="2" fill="#000000" class="pixel"/>
  
  <!-- Gi top (orange) -->
  <rect x="10" y="14" width="12" height="8" fill="#ff8c00" class="pixel"/>
  
  <!-- Gi belt (blue) -->
  <rect x="10" y="18" width="12" height="2" fill="#0066cc" class="pixel"/>
  
  <!-- Left arm (normal position) -->
  <rect x="6" y="16" width="4" height="6" fill="#ffdbac" class="pixel"/>
  <rect x="6" y="20" width="4" height="2" fill="#ffdbac" class="pixel"/>
  
  <!-- Right arm (extended for punch) -->
  <rect x="22" y="16" width="6" height="4" fill="#ffdbac" class="pixel"/>
  <rect x="26" y="18" width="4" height="2" fill="#ffdbac" class="pixel"/>
  
  <!-- Punch effect lines -->
  <rect x="28" y="17" width="2" height="1" fill="#ffffff" class="pixel"/>
  <rect x="29" y="19" width="2" height="1" fill="#ffffff" class="pixel"/>
  <rect x="30" y="16" width="1" height="1" fill="#ffffff" class="pixel"/>
  
  <!-- Legs (orange gi pants) -->
  <rect x="12" y="22" width="3" height="8" fill="#ff8c00" class="pixel"/>
  <rect x="17" y="22" width="3" height="8" fill="#ff8c00" class="pixel"/>
  
  <!-- Boots (blue) -->
  <rect x="11" y="28" width="5" height="4" fill="#0066cc" class="pixel"/>
  <rect x="16" y="28" width="5" height="4" fill="#0066cc" class="pixel"/>
</svg>
